simulation
nRows=31
nColumns=15
endheader
time  TH_x TH_y TH_z SC_y  SC_z  SC_x  AC_y  AC_z  AC_x  GH_y  GH_z  GH_yy  EL_x  PS_y
0.000000  0.000000  0.000000  0.000000  -29.499669  0.427666  -8.391308  50.989269  12.505219  -0.203235  75.490379  0.811927  -46.800741  22.823174  0.000000
0.000998  0.000000  0.000000  0.000000  -29.499661  0.427584  -8.390469  50.989258  12.504690  -0.203918  75.486425  0.812019  -46.796837  22.823134  0.000000
0.001996  0.000000  0.000000  0.000000  -29.499653  0.427502  -8.389631  50.989248  12.504160  -0.204602  75.482475  0.812111  -46.792937  22.823094  0.000000
0.002994  0.000000  0.000000  0.000000  -29.499645  0.427421  -8.388793  50.989238  12.503630  -0.205286  75.478529  0.812203  -46.789041  22.823055  0.000000
0.003992  0.000000  0.000000  0.000000  -29.499584  0.426832  -8.382751  50.989171  12.499810  -0.210224  75.450223  0.812875  -46.761105  22.822767  0.000000
0.004990  0.000000  0.000000  0.000000  -29.499519  0.426243  -8.376713  50.989110  12.495991  -0.215168  75.422113  0.813555  -46.733372  22.822480  0.000000
0.005988  0.000000  0.000000  0.000000  -29.499449  0.425653  -8.370679  50.989054  12.492172  -0.220116  75.394202  0.814241  -46.705843  22.822192  0.000000
0.006986  0.000000  0.000000  0.000000  -29.498969  0.422148  -8.334924  50.988789  12.469519  -0.249528  75.232177  0.818395  -46.546153  22.820493  0.000000
0.007985  0.000000  0.000000  0.000000  -29.498390  0.418631  -8.299226  50.988582  12.446869  -0.278958  75.075854  0.822608  -46.392197  22.818810  0.000000
0.008983  0.000000  0.000000  0.000000  -29.497741  0.415100  -8.263531  50.988340  12.424206  -0.308295  74.924006  0.826750  -46.242630  22.817156  0.000000
0.009981  0.000000  0.000000  0.000000  -29.497039  0.411555  -8.227810  50.988007  12.401519  -0.337473  74.775435  0.830743  -46.096192  22.815540  0.000000
0.010979  0.000000  0.000000  0.000000  -29.496269  0.407991  -8.192074  50.987582  12.378796  -0.366464  74.629752  0.834570  -45.952494  22.813971  0.000000
0.011977  0.000000  0.000000  0.000000  -29.495427  0.404410  -8.156367  50.987151  12.356054  -0.395379  74.486890  0.838359  -45.811597  22.812432  0.000000
0.012975  0.000000  0.000000  0.000000  -29.494503  0.400815  -8.120722  50.986772  12.333303  -0.424282  74.347231  0.842189  -45.673950  22.810911  0.000000
0.013973  0.000000  0.000000  0.000000  -29.493511  0.397209  -8.085135  50.986450  12.310548  -0.453198  74.210600  0.846080  -45.539386  22.809399  0.000000
0.014971  0.000000  0.000000  0.000000  -29.492448  0.393590  -8.049618  50.986199  12.287791  -0.482135  74.077295  0.850050  -45.408211  22.807894  0.000000
0.015969  0.000000  0.000000  0.000000  -29.491315  0.389958  -8.014166  50.986010  12.265032  -0.511083  73.947322  0.854090  -45.280410  22.806397  0.000000
0.016967  0.000000  0.000000  0.000000  -29.490124  0.386312  -7.978767  50.985855  12.242266  -0.540013  73.820360  0.858170  -45.155622  22.804908  0.000000
0.017965  0.000000  0.000000  0.000000  -29.488885  0.382651  -7.943406  50.985706  12.219488  -0.568895  73.695923  0.862256  -45.033324  22.803431  0.000000
0.018963  0.000000  0.000000  0.000000  -29.487607  0.378976  -7.908076  50.985541  12.196697  -0.597709  73.573561  0.866328  -44.913041  22.801966  0.000000
0.019961  0.000000  0.000000  0.000000  -29.486286  0.375280  -7.872789  50.985361  12.173886  -0.626439  73.453173  0.870389  -44.794667  22.800518  0.000000
0.020959  0.000000  0.000000  0.000000  -29.484928  0.371568  -7.837549  50.985184  12.151063  -0.655122  73.334659  0.874469  -44.678139  22.799080  0.000000
0.021958  0.000000  0.000000  0.000000  -29.483534  0.367840  -7.802364  50.985026  12.128233  -0.683779  73.218138  0.878592  -44.563597  22.797648  0.000000
0.022956  0.000000  0.000000  0.000000  -29.482109  0.364096  -7.767239  50.984894  12.105397  -0.712418  73.103716  0.882772  -44.451153  22.796220  0.000000
0.023954  0.000000  0.000000  0.000000  -29.480655  0.360335  -7.732171  50.984787  12.082558  -0.741041  72.991425  0.887010  -44.340837  22.794794  0.000000
0.024952  0.000000  0.000000  0.000000  -29.479181  0.356558  -7.697158  50.984699  12.059717  -0.769644  72.881229  0.891301  -44.232605  22.793371  0.000000
0.025950  0.000000  0.000000  0.000000  -29.477691  0.352764  -7.662197  50.984622  12.036875  -0.798220  72.773067  0.895639  -44.126388  22.791950  0.000000
0.026948  0.000000  0.000000  0.000000  -29.476191  0.348956  -7.627276  50.984549  12.014031  -0.826770  72.666714  0.900013  -44.021959  22.790531  0.000000
0.027946  0.000000  0.000000  0.000000  -29.474685  0.345133  -7.592398  50.984479  11.991187  -0.855292  72.562230  0.904424  -43.919373  22.789114  0.000000
0.028944  0.000000  0.000000  0.000000  -29.473176  0.341292  -7.557566  50.984412  11.968344  -0.883781  72.459679  0.908876  -43.818695  22.787699  0.000000
0.029942  0.000000  0.000000  0.000000  -29.471667  0.337434  -7.522780  50.984349  11.945504  -0.912241  72.359126  0.913372  -43.719989  22.786286  0.000000
